# xmcd
#
# Track frame offsets: 
#        150
#        22090
#        34887
#        61334
#        87578
#        116676
#        134591
#        150922
#        163367
#        185015
#        198885
#        223227
#        246538
#        264593
#        282771
#        297839
#        335692
#
# Disc length: 4772 seconds
#
# Revision: 0
# Processed by: cddbd v1.5.2PL0 Copyright (c) Steve Scherf et al.
# Submitted via: ExactAudioCopy v1.3
#
DISCID=1212a211
DTITLE=Various Artist - Blues - Golden Age '60s -'70s  vol.01  CD2
DYEAR=2017
DGENRE=Rock
TTITLE0=Grand Funk Railroad (1973) - Stop Lookin' Back
TTITLE1=Lynyrd Skynyrd (1976) - Double Trouble
TTITLE2=Deep Purple (1974) - Sail Away
TTITLE3=Ac-Dc (1975) - Live Wire
TTITLE4=Led Zeppelin (1969) - You Shook Me
TTITLE5=Bad Company (1976) - Live For The Music
TTITLE6=Nazareth (1977) - New York Broken Toy
TTITLE7=Jimi Hendrix (1967) - Fire
TTITLE8=Ufo (1977) - Try Me
TTITLE9=Dr. Feelgood (1974) - All Through The City
TTITLE10=ZZ Top (1971) - Brown Sugar
TTITLE11=The Allman Brothers Band (1969) - Black Hearted Woman
TTITLE12=Juicy Luicy (1970) - Whisky In My Jar
TTITLE13=Free (1973) - Travellin' In Style
TTITLE14=The Doors (1971) - Love Her Madly
TTITLE15=Wishbone Ash (1973) - Everybody Needs a Friend
TTITLE16=Budgie (1978) - Don't Go Away
EXTD=
EXTT0=
EXTT1=
EXTT2=
EXTT3=
EXTT4=
EXTT5=
EXTT6=
EXTT7=
EXTT8=
EXTT9=
EXTT10=
EXTT11=
EXTT12=
EXTT13=
EXTT14=
EXTT15=
EXTT16=
PLAYORDER=
